# xmcd
#
# Track frame offsets:
#	150
#	18330
#	28652
#	42537
#	77370
#	91715
#	103325
#	130920
#	142060
#	157257
#
# Disc length: 2271
#
# Revision: 3
# Processed by: cddbd v1.5.1PL0 Copyright (c) Steve Scherf et al.
# Submitted via: Grip 3.2.0
# Normalized: r2:TDELIM( - ),TSWAP
#
DISCID=8108dd0a
DTITLE=Various Artist - The Blues Box Set - Birth of the Blues
DYEAR=2000
DGENRE=Blues
TTITLE0=Lightnin' Hopkins - Shake That Thing
TTITLE1=Joe Williams - 44" Blues
TTITLE2=Etta James - Trust In Me
TTITLE3=Big Moma Thornton - Ball And Chain
TTITLE4=Ray Charles - Blues Is My Middle Name
TTITLE5=Joe Williams - Bye Bye Baby Blues
TTITLE6=Big Joe Turner - Stormy Monday Blues
TTITLE7=Billie Holiday - What A Little Moonlight Can Do
TTITLE8=Bo Diddley - I'm Going Home
TTITLE9=Charles Brown - Rockin' Blues
EXTD=
EXTT0=
EXTT1=
EXTT2=
EXTT3=
EXTT4=
EXTT5=
EXTT6=
EXTT7=
EXTT8=
EXTT9=
PLAYORDER=
